<svg fill="none" height="300" viewBox="0 0 24 24" width="300" xmlns="http://www.w3.org/2000/svg" xmlns:xlink="http://www.w3.org/1999/xlink" version="1.1" xmlns:svgjs="http://svgjs.dev/svgjs"><g transform="matrix(1,0,0,1,0,0)"><g fill="url(#paint0_linear_4_1819)"><path d="m15.5385 11.4898c2.2564 0 4.1025-1.83669 4.1025-4.08159s-1.8461-4.08163-4.1025-4.08163c-.1026 0-.2051 0-.3077 0 .6154 1.02041 1.0256 2.2449 1.0256 3.46939 0 1.73469-.7179 3.36733-1.8461 4.59183.3077.102.7179.102 1.1282.102z" fill="url(#paint0_linear_4_1819)" data-original-color="paint0_linear_4_1819" stroke="none" stroke-opacity="1"/><path d="m17.2821 13.6325h-1.0256c1.5384 1.3265 2.5641 3.3675 2.5641 5.6123 0 .5103-.1026.9184-.2052 1.3266 1.3334-.2041 2.1539-.5102 2.6667-.8163.5128-.3062.718-.8164.718-1.4286 0-2.551-2.1539-4.694-4.718-4.694z" fill="url(#paint0_linear_4_1819)" data-original-color="paint0_linear_4_1819" stroke="none" stroke-opacity="1"/><path d="m9.38459 11.4897c1.23081 0 2.25641-.408 3.17951-1.2243 1.0256-.81642 1.5384-2.14295 1.5384-3.46948 0-1.02041-.3077-2.04082-.923-2.7551-.8206-1.22449-2.1539-2.04082-3.79491-2.04082-2.5641 0-4.71795 2.14286-4.71795 4.69388 0 2.65306 2.15385 4.79582 4.71795 4.79582z" fill="url(#paint0_linear_4_1819)" data-original-color="paint0_linear_4_1819" stroke="none" stroke-opacity="1"/><path d="m12.1538 13.9389c-.3076 0-.5128-.1021-.8205-.1021h-3.8974c-2.97436 0-5.4359 2.4491-5.4359 5.4082 0 .7143.30769 1.2245.82051 1.6327.82052.5102 2.76923 1.1223 6.5641 1.1223 3.79489 0 5.64099-.6121 6.56409-1.1223 0 0 .1026-.102.2051-.102.4103-.3062.718-.8164.718-1.5307-.1026-2.653-2.0513-4.8979-4.718-5.3061z" fill="url(#paint0_linear_4_1819)" data-original-color="paint0_linear_4_1819" stroke="none" stroke-opacity="1"/></g></g><defs><linearGradient id="paint0_linear_4_1819"><stop stop-opacity="1" stop-color="#96f0f0" offset="0"/><stop stop-opacity="1" stop-color="#2563eb" offset="1"/></linearGradient></defs></svg>