<svg fill="none" height="300" viewBox="0 0 24 25" width="300" xmlns="http://www.w3.org/2000/svg" xmlns:xlink="http://www.w3.org/1999/xlink" version="1.1" xmlns:svgjs="http://svgjs.dev/svgjs"><g transform="matrix(1,0,0,1,0,0)"><g fill="url(#paint0_linear_2_4388)"><path d="m8 6h8c1.6569 0 3-1.34315 3-3 0-.27614-.2239-.5-.5-.5h-13c-.27614 0-.5.22386-.5.5 0 1.65685 1.34315 3 3 3z" fill="url(#paint0_linear_2_4388)" data-original-color="paint0_linear_2_4388" stroke="none" stroke-opacity="1"/><path d="m5 12c0-1.8856 0-2.82843.58579-3.41421.58578-.58579 1.52859-.58579 3.41421-.58579h6c1.8856 0 2.8284 0 3.4142.58579.5858.58578.5858 1.52861.5858 3.41421v1c0 1.8856 0 2.8284-.5858 3.4142s-1.5286.5858-3.4142.5858h-6c-1.88562 0-2.82843 0-3.41421-.5858-.58579-.5858-.58579-1.5286-.58579-3.4142z" fill="url(#paint0_linear_2_4388)" data-original-color="paint0_linear_2_4388" stroke="none" stroke-opacity="1"/><path d="m16 19h-8c-1.65685 0-3 1.3431-3 3 0 .2761.22386.5.5.5h13c.2761 0 .5-.2239.5-.5 0-1.6569-1.3431-3-3-3z" fill="url(#paint0_linear_2_4388)" data-original-color="paint0_linear_2_4388" stroke="none" stroke-opacity="1"/></g></g><defs><linearGradient id="paint0_linear_2_4388"><stop stop-opacity="1" stop-color="#96f0f0" offset="0"/><stop stop-opacity="1" stop-color="#2563eb" offset="1"/></linearGradient></defs></svg>