<svg fill="none" height="300" viewBox="0 0 24 24" width="300" xmlns="http://www.w3.org/2000/svg" xmlns:xlink="http://www.w3.org/1999/xlink" version="1.1" xmlns:svgjs="http://svgjs.dev/svgjs"><g transform="matrix(1,0,0,1,0,0)"><path d="m20 12.2564c0 3.4872-.5096 8.8205-.5096 9.0256s-.2038.5128-.4076.6154c-.1019.1026-.2038.1026-.4076.1026-.102 0-.2039 0-.4077-.1026l-6.2165-3.2821c-.102 0-.2039 0-.2039 0l-6.21653 3.2821c-.20382.1026-.50955.1026-.71337 0s-.40765-.3077-.40765-.6154c0-.2051-.50955-5.5384-.50955-9.0256.10191-2.2564.30573-5.23076.50955-7.3846.10191-1.33334 1.12102-2.35898 2.44586-2.56411 1.42676-.10256 3.46499-.30769 5.09559-.30769 1.6305 0 3.6687.20513 5.0955.30769 1.3248.10257 2.3439 1.23077 2.4459 2.56411.2038 2.15384.4076 5.1282.4076 7.3846z" fill="url(#paint0_linear_4_1779)" data-original-color="paint0_linear_4_1779" stroke="none" stroke-opacity="1"/></g><defs><linearGradient id="paint0_linear_4_1779"><stop stop-opacity="1" stop-color="#96f0f0" offset="0"/><stop stop-opacity="1" stop-color="#2563eb" offset="1"/></linearGradient></defs></svg>