<?xml version="1.0" encoding="UTF-8"?>
<svg id="Capa_2" xmlns="http://www.w3.org/2000/svg" viewBox="0 0 1168 1162.39">
  <defs>
    <style>
      .cls-1 {
        fill: #2563EB;
      }
    </style>
  </defs>
  <g id="Capa_1-2" data-name="Capa_1">
    <g>
      <path class="cls-1" d="M111.45,583.35h155.34l2.89,67.56c20.41-25.78,45.81-46.09,76.23-60.92,30.41-14.81,63.72-22.23,99.91-22.23,39.66,0,74.02,8.86,103.08,26.56,29.06,17.72,51.69,42.55,67.86,74.5,22.33-30.8,52.17-55.34,89.52-73.62s78.14-27.44,122.42-27.44c67.38,0,120.78,21.38,160.25,64.11s59.2,100.86,59.2,174.39v132.22c75.18-98.29,119.85-221.17,119.85-354.48C1168,261.47,906.53,0,584,0S0,261.47,0,584c0,128.26,41.35,246.86,111.45,343.21v-343.86Z"/>
      <path class="cls-1" d="M779.04,715.58c-34.66,0-62.28,11.56-82.88,34.66-20.59,23.11-30.89,57.77-30.89,103.95v308.2c76.37-10.63,148-36.04,211.94-73.23v-256.92c0-36.95-8.58-65.64-25.7-86.05s-41.28-30.61-72.47-30.61Z"/>
      <path class="cls-1" d="M396.15,715.58c-34.66,0-62.28,11.56-82.88,34.66-20.59,23.11-30.89,57.77-30.89,103.95v229.99c63.72,38.5,135.38,65.18,211.95,76.98v-328.92c0-36.95-8.58-65.64-25.7-86.05-17.14-20.41-41.3-30.61-72.48-30.61Z"/>
    </g>
  </g>
</svg>