
<svg fill="none" height="300" viewBox="0 0 24 24" width="300" xmlns="http://www.w3.org/2000/svg" xmlns:xlink="http://www.w3.org/1999/xlink" version="1.1" xmlns:svgjs="http://svgjs.dev/svgjs"><g transform="matrix(1,0,0,1,0,0)"><path clip-rule="evenodd" d="m11.9999 1.25c-2.43011 0-4.43403 1.82495-4.716 4.17915-.39371.07541-.75642.18441-1.10434.34391-1.00543.46091-1.8566 1.20203-2.45145 2.1345-.36004.56439-.57368 1.19574-.7415 1.96591-.16443.75453-.29508 1.69533-.4613 2.89213l-.00921.0663c-.21391 1.5401-.38112 2.744-.43191 3.7138-.05157.9846.01081 1.8051.30701 2.5584.48412 1.2312 1.37801 2.2579 2.53093 2.9068.70538.397 1.50952.5716 2.49188.656.96752.0831 2.18302.0831 3.73789.0831h1.6961c1.5549 0 2.7704 0 3.7379-.0831.9824-.0844 1.7865-.259 2.4919-.656 1.1529-.6489 2.0468-1.6756 2.5309-2.9068.2962-.7533.3586-1.5738.307-2.5584-.0508-.9698-.218-2.1738-.4319-3.7139l-.0092-.0662c-.1662-1.1968-.2969-2.1376-.4613-2.89213-.1678-.77017-.3815-1.40152-.7415-1.96591-.5949-.93247-1.446-1.67359-2.4515-2.1345-.3479-.1595-.7106-.2685-1.1043-.34391-.282-2.3542-2.2859-4.17915-4.7161-4.17915zm-.8573 4c-.9021-.00001-1.66144-.00001-2.31156.02533.32932-1.44609 1.62306-2.52533 3.16886-2.52533 1.5459 0 2.8396 1.07924 3.169 2.52533-.6502-.02534-1.4095-.02534-2.3116-.02533zm-2.61227 5.2197c-.29289-.2929-.76777-.2929-1.06066 0s-.29289.7677 0 1.0606l.4.4c2.28113 2.2811 5.97953 2.2811 8.26063 0l.4-.4c.2929-.2929.2929-.7677 0-1.0606s-.7677-.2929-1.0606 0l-.4.4c-1.6954 1.6953-4.444 1.6953-6.13937 0z" fill="url(#paint0_linear_2_5666)" fill-rule="evenodd" data-original-color="paint0_linear_2_5666" stroke="none" stroke-opacity="1"/></g><defs><linearGradient id="paint0_linear_2_5666"><stop stop-opacity="1" stop-color="#96f0f0" offset="0"/><stop stop-opacity="1" stop-color="#2563eb" offset="0.98"/></linearGradient></defs></svg>