<svg fill="none" height="300" viewBox="0 0 24 24" width="300" xmlns="http://www.w3.org/2000/svg" xmlns:xlink="http://www.w3.org/1999/xlink" version="1.1" xmlns:svgjs="http://svgjs.dev/svgjs"><circle r="12" cx="12" cy="12" shape="true" transform="matrix(1,0,0,1,0,0)" fill="url(#SvgjsLinearGradient1368)"/><g transform="matrix(0.7,0,0,0.7,3.600000429153443,3.5999998569488536)"><path d="m22 9.07503c0 1.64487-.7143 3.08407-1.8367 4.21487l-7.6531 7.5045c-.2041.1028-.3061.2056-.5102.2056s-.4082-.1028-.5102-.2056l-7.65307-7.6073c-1.12244-1.1308-1.83673-2.6729-1.83673-4.31767 0-1.54203.71429-2.98125 1.83673-4.11206 1.22449-1.13082 2.75511-1.85043 4.38776-1.74763 1.32653 0 2.55101.51401 3.57141 1.33642 2.449-1.95323 5.9184-1.74763 8.1633.51401 1.3265 1.02801 2.0408 2.57003 2.0408 4.21486z" fill="url(#paint0_linear_4_1711)" data-original-color="paint0_linear_4_1711" stroke="none" stroke-opacity="1"/></g><defs><linearGradient id="SvgjsLinearGradient1368"><stop stop-opacity="1" stop-color="#fb7185" offset="0.02"/><stop stop-opacity="1" stop-color="#d74343" offset="1"/></linearGradient><linearGradient id="paint0_linear_4_1711"><stop stop-opacity="1" stop-color="#ffffff" offset="0"/><stop stop-opacity="1" stop-color="#ffffff" offset="1"/></linearGradient></defs></svg>