<svg fill="none" height="300" viewBox="0 0 24 24" width="300" xmlns="http://www.w3.org/2000/svg" xmlns:xlink="http://www.w3.org/1999/xlink" version="1.1" xmlns:svgjs="http://svgjs.dev/svgjs"><circle r="12" cx="12" cy="12" shape="true" transform="matrix(1,0,0,1,0,0)" fill="url(#SvgjsLinearGradient1114)"/><g transform="matrix(0.79,0,0,0.79,2.5877466773986804,2.5725001001358034)"><g fill="url(#paint0_linear_2_4797)"><path d="m9.34488 8.31457 2.23052-3.62462c.2639-.42877.7313-.68995 1.2347-.68995.8886 0 1.5681.79201 1.4329 1.67022l-.243 1.57978c-.2629 1.70887 1.0593 3.25 2.7882 3.25h.6898c2.537 0 4.1871 2.6699 3.0525 4.939l-1.1485 2.2971c-.847 1.6939-2.5783 2.7639-4.4722 2.7639h-2.9098c-1.3479 0-2.54006-.6667-3.26475-1.6883.00976-.1026.01475-.2066.01475-.3117v-8c0-.331-.04948-.65045-.14145-.95134.17722-.32554.41318-.70898.73633-1.23409z" fill="url(#paint0_linear_2_4797)" data-original-color="paint0_linear_2_4797" stroke="none" stroke-opacity="1"/><path d="m7.25 18.5c0 .9665-.7835 1.75-1.75 1.75s-1.75-.7835-1.75-1.75v-8c0-.9665.7835-1.75 1.75-1.75s1.75.7835 1.75 1.75z" fill="url(#paint0_linear_2_4797)" data-original-color="paint0_linear_2_4797" stroke="none" stroke-opacity="1"/></g></g><defs><linearGradient id="SvgjsLinearGradient1114"><stop stop-opacity="1" stop-color="#96f0f0" offset="0"/><stop stop-opacity="1" stop-color="#2563eb" offset="1"/></linearGradient><linearGradient id="paint0_linear_2_4797"><stop stop-opacity="1" stop-color="#ffffff" offset="0"/><stop stop-opacity="1" stop-color="#ffffff" offset="1"/></linearGradient></defs></svg>