<svg fill="none" height="300" viewBox="0 0 24 24" width="300" xmlns="http://www.w3.org/2000/svg" xmlns:xlink="http://www.w3.org/1999/xlink" version="1.1" xmlns:svgjs="http://svgjs.dev/svgjs"><g transform="matrix(1,0,0,1,0,0)"><path clip-rule="evenodd" d="m5.07868 5.06897c3.79534-3.78998 9.96502-3.74968 13.78352.06887 3.8202 3.82019 3.8589 9.99346.064 13.78846-3.795 3.7949-9.96827 3.7562-13.78846-.064-2.26385-2.2639-3.1987-5.3523-2.79727-8.281.05625-.4104.43453-.69747.8449-.64122.41038.05625.69745.43452.64121.84492-.33998 2.4803.45124 5.0961 2.37182 7.0166 3.24448 3.2445 8.468 3.2631 11.6671.064s3.1805-8.42262-.064-11.6671c-3.2428-3.24282-8.46261-3.26305-11.66215-.06887l.7477.00376c.41421.00208.7483.33955.74622.75376s-.33955.7483-.75376.74622l-2.54555-.01279c-.41127-.00207-.74415-.33496-.74622-.74622l-.01279-2.54556c-.00209-.4142.33201-.75167.74622-.75375.41421-.00209.75168.33201.75376.74622zm6.92122 2.18101c.4142 0 .75.33579.75.75v3.68932l2.2803 2.2804c.2929.2928.2929.7677 0 1.0606s-.7678.2929-1.0606 0l-2.7197-2.7197v-4.31062c0-.41421.3358-.75.75-.75z" fill="url(#paint0_linear_49_758)" fill-rule="evenodd" data-original-color="paint0_linear_49_758" stroke="none" stroke-opacity="1"/></g><defs><linearGradient id="paint0_linear_49_758"><stop stop-opacity="1" stop-color="#96f0f0" offset="0"/><stop stop-opacity="1" stop-color="#2563eb" offset="1"/></linearGradient></defs></svg>