<svg fill="none" height="300" viewBox="0 0 24 24" width="300" xmlns="http://www.w3.org/2000/svg" xmlns:xlink="http://www.w3.org/1999/xlink" version="1.1" xmlns:svgjs="http://svgjs.dev/svgjs"><g transform="matrix(1,0,0,1,0,0)"><g fill="url(#paint0_linear_2_5512)"><path d="m7.73306 8.75186c.07849-.0088.24784.00624.65052.2042.3975.19541.90582.50729 1.64442.96182.7382.45432 1.2462.76792 1.6045 1.03772.3584.2699.4719.4287.5162.5348.1351.3234.1351.6958 0 1.0192-.0443.1061-.1578.2649-.5162.5348-.3583.2698-.8663.5834-1.6045 1.0377-.7386.4545-1.24692.7664-1.64442.9618-.40268.198-.57203.213-.65052.2042-.29152-.0326-.57175-.1973-.76151-.4757-.06408-.094-.13928-.2862-.18034-.7632-.04055-.4712-.04121-1.1024-.04121-2.0092s.00066-1.538.04121-2.0092c.04106-.47705.11626-.66919.18034-.76321.18976-.27841.46999-.44307.76151-.47573z" fill="url(#paint0_linear_2_5512)" data-original-color="paint0_linear_2_5512" stroke="none" stroke-opacity="1"/><path clip-rule="evenodd" d="m9.03356 3.25h-.06712c-1.37171 0-2.44716-.00001-3.3115.07061-.88014.07191-1.60725.22077-2.26539.5561-1.08193.55127-1.96157 1.43091-2.512837 2.51284-.335334.65814-.484191 1.38525-.556101 2.26539-.07062.86434-.070616 1.93976-.070612 3.31146v.0672c-.000004 1.3717-.000008 2.4471.070612 3.3115.07191.8801.220767 1.6072.556101 2.2653.551267 1.082 1.430907 1.9616 2.512837 2.5129.65814.3353 1.38524.4842 2.26539.5561.86427.0706 1.9396.0706 3.31114.0706h.0675c1.37152 0 2.44722 0 3.31152-.0706.8801-.0719 1.6072-.2208 2.2653-.5561 1.082-.5513 1.9616-1.4309 2.5129-2.5129.05-.0981.0959-.1979.138-.2995 1.1667.5097 2.1221.9235 2.8977 1.1339.8249.2238 1.6284.2699 2.3467-.2002.7184-.47.9979-1.2248 1.1231-2.0703.1213-.8187.1212-1.8986.1212-3.2241v-1.9004c0-1.32554.0001-2.40544-.1212-3.22413-.1252-.84548-.4047-1.60027-1.1231-2.0703-.7183-.47003-1.5218-.42393-2.3467-.20015-.7756.21039-1.731.62416-2.8977 1.13387-.0421-.10161-.088-.20135-.138-.29954-.5513-1.08193-1.4309-1.96157-2.5129-2.51284-.6581-.33533-1.3852-.48419-2.2653-.5561-.8644-.07062-1.9398-.07061-3.31154-.07061zm1.74714 5.36986c-.697-.42897-1.26611-.77925-1.73536-1.00993-.47154-.23181-.96253-.40664-1.47929-.34875-.7469.08368-1.41001.49958-1.83398 1.1216-.28773.42215-.38844.93453-.43533 1.4794-.04676.54322-.04675 1.23952-.04674 2.10192v.0718c-.00001.8624-.00002 1.5587.04674 2.1019.04689.5449.1476 1.0573.43533 1.4794.42397.622 1.08708 1.0379 1.83398 1.1216.51676.0579 1.00775-.1169 1.47929-.3487.46925-.2307 1.03836-.581 1.73536-1.0099l.0661-.0407c.6977-.4294 1.2666-.7795 1.6881-1.0969.4278-.3222.7988-.6781.9979-1.1549.2896-.6933.2896-1.4821 0-2.1754-.1991-.4768-.5701-.8327-.9979-1.1549-.4215-.31739-.9904-.66753-1.6881-1.0969z" fill-rule="evenodd" fill="url(#paint0_linear_2_5512)" data-original-color="paint0_linear_2_5512" stroke="none" stroke-opacity="1"/></g></g><defs><linearGradient id="paint0_linear_2_5512"><stop stop-opacity="1" stop-color="#96f0f0" offset="0"/><stop stop-opacity="1" stop-color="#2563eb" offset="1"/></linearGradient></defs></svg>